/* XPM */
static char *_617081825369[] = {
/* columns rows colors chars-per-pixel */
"15 15 93 2 ",
"   c gray6",
".  c gray7",
"X  c #131313",
"o  c #191919",
"O  c gray11",
"+  c #1D1D1D",
"@  c #1E1E1E",
"#  c gray12",
"$  c #202020",
"%  c gray13",
"&  c #222222",
"*  c #232323",
"=  c gray14",
"-  c #252525",
";  c gray15",
":  c #272727",
">  c #282828",
",  c #2A2A2A",
"<  c gray17",
"1  c #2C2C2C",
"2  c #2D2D2D",
"3  c gray18",
"4  c #2F2F2F",
"5  c gray19",
"6  c #313131",
"7  c #323232",
"8  c gray20",
"9  c #343434",
"0  c #373737",
"q  c #3A3A3A",
"w  c gray23",
"e  c #3C3C3C",
"r  c gray24",
"t  c #3E3E3E",
"y  c #414141",
"u  c gray28",
"i  c gray29",
"p  c #4B4B4B",
"a  c gray31",
"s  c #505050",
"d  c gray32",
"f  c #565656",
"g  c #5A5A5A",
"h  c #5B5B5B",
"j  c gray36",
"k  c gray37",
"l  c #646464",
"z  c DimGray",
"x  c #6A6A6A",
"c  c gray42",
"v  c #6C6C6C",
"b  c gray43",
"n  c gray44",
"m  c #717171",
"M  c #727272",
"N  c gray45",
"B  c #777777",
"V  c gray48",
"C  c #7E7E7E",
"Z  c gray50",
"A  c #808080",
"S  c gray51",
"D  c gray53",
"F  c #8D8D8D",
"G  c #909090",
"H  c gray57",
"J  c #959595",
"K  c gray59",
"L  c #979797",
"P  c #9A9A9A",
"I  c gray62",
"U  c #A0A0A0",
"Y  c gray63",
"T  c #A4A4A4",
"R  c #A9A9A9",
"E  c #ACACAC",
"W  c #B2B2B2",
"Q  c #B4B4B4",
"!  c #B7B7B7",
"~  c #B9B9B9",
"^  c gray75",
"/  c #C0C0C0",
"(  c #C6C6C6",
")  c #C8C8C8",
"_  c #CDCDCD",
"`  c #CECECE",
"'  c gray82",
"]  c #D5D5D5",
"[  c #D7D7D7",
"{  c #DDDDDD",
"}  c #E2E2E2",
"|  c gray92",
" . c None",
/* pixels */
" . . . .S b n K [  . . . . . .",
" . .T a 1 > o @ s P  . . . . .",
" .P w ; 5 5 C B $ ; B (  . . .",
" .a ; 0 $ F _ U ! w @ j (  . .",
"K c o 1 ; D U X ( c ; @ h _  .",
" .H I p $ > c P c 1 5 0 @ B [ ",
" .@ b T I 0 ; ; ; 1 5 5 @ l ) ",
" . . .n F 5 5 5 0 1 0 @ p { h ",
" . . .V ; 1 5 1 5 0 o h | c  .",
" . .l $ 5 1 5 0 > $ D } j  . .",
" .n @ 0 5 0 1 @ y / ^ r  . . .",
"! 5 1 > ; @ 0 F ' C @  . . . .",
"R S > r f H / K w  . . . . . .",
"p R ! ! T V r .  . . . . . . .",
" .@ w 5 $    . . . . . . . . ."
};
