/* XPM */
static char *_617081593329[] = {
/* columns rows colors chars-per-pixel */
"20 21 119 2 ",
"   c #161616",
".  c #191919",
"X  c gray10",
"o  c #1B1B1B",
"O  c #1D1D1D",
"+  c #1E1E1E",
"@  c gray12",
"#  c #202020",
"$  c gray13",
"%  c #222222",
"&  c #232323",
"*  c gray14",
"=  c #252525",
"-  c gray15",
";  c #272727",
":  c #282828",
">  c gray16",
",  c #2A2A2A",
"<  c gray17",
"1  c #2C2C2C",
"2  c #2D2D2D",
"3  c gray18",
"4  c #2F2F2F",
"5  c gray19",
"6  c #313131",
"7  c #323232",
"8  c gray20",
"9  c #343434",
"0  c #353535",
"q  c gray21",
"w  c #373737",
"e  c gray22",
"r  c #3A3A3A",
"t  c #3C3C3C",
"y  c gray25",
"u  c gray26",
"i  c #444444",
"p  c gray27",
"a  c #484848",
"s  c #4B4B4B",
"d  c gray30",
"f  c #565656",
"g  c #585858",
"h  c #5A5A5A",
"j  c gray36",
"k  c #5D5D5D",
"l  c #606060",
"z  c gray39",
"x  c #646464",
"c  c gray40",
"v  c #686868",
"b  c DimGray",
"n  c #6D6D6D",
"m  c gray44",
"M  c #717171",
"N  c #727272",
"B  c gray45",
"V  c gray46",
"C  c #767676",
"Z  c gray47",
"A  c gray48",
"S  c #7C7C7C",
"D  c gray50",
"F  c gray51",
"G  c #888888",
"H  c #898989",
"J  c gray55",
"K  c #8E8E8E",
"L  c gray57",
"P  c #979797",
"I  c #989898",
"U  c #9A9A9A",
"Y  c gray61",
"T  c #9D9D9D",
"R  c #9F9F9F",
"E  c gray64",
"W  c #A7A7A7",
"Q  c gray66",
"!  c #AAAAAA",
"~  c gray67",
"^  c #ACACAC",
"/  c gray70",
"(  c gray71",
")  c gray73",
"_  c #BBBBBB",
"`  c gray74",
"'  c gray",
"]  c #C1C1C1",
"[  c #C6C6C6",
"{  c #C8C8C8",
"}  c gray79",
"|  c #CBCBCB",
" . c gray80",
".. c #CDCDCD",
"X. c #CECECE",
"o. c gray81",
"O. c #D2D2D2",
"+. c LightGray",
"@. c gray83",
"#. c #D5D5D5",
"$. c gray84",
"%. c #D8D8D8",
"&. c gray85",
"*. c #DADADA",
"=. c gray86",
"-. c gray87",
";. c #E4E4E4",
":. c #E6E6E6",
">. c #E9E9E9",
",. c #EEEEEE",
"<. c #EFEFEF",
"1. c gray94",
"2. c gray95",
"3. c #F3F3F3",
"4. c #F4F4F4",
"5. c #FDFDFD",
"6. c #FEFEFE",
"7. c white",
"8. c None",
/* pixels */
"8.8.8.8.8.8.Y L J ~ &.8.8.8.8.8.8.8.8.8.",
"8.8.8.8.I s 5 : : 3 f E @.8.8.8.8.8.8.8.",
"8.8.8.S : : 5 q ; % ; % l ) 8.8.8.8.8.8.",
"8.8.C O 5 5 5 : l N q ; ; q ~  .8.8.8.8.",
"8.Y : 5 5 5 % Z 7.1.1.C ; 3 % Y @.8.8.8.",
"8.b % q 5 5 O [ Y   n 1.j ; 5 O Y &.8.8.",
"Z ~ ; % q q % G } u ; @.C % q 5 O ^ @.8.",
"8.F &.c % % 5 ; N  . .Z : 5 5 5 3 3  .8.",
"8.o j O. .b 3 5 % : 5 ; 5 3 5 5 q o L O.",
"8.8.8.: b &.W % q 5 5 5 5 3 5 5 3 ; O.P ",
"8.8.8.8.t Y g : 5 5 5 5 5 3 5 5 % ` @.3 ",
"8.8.8.8.} s ; 5 5 5 5 5 3 q : ; ) 1.u 8.",
"8.8.8.^ q ; 5 3 5 5 5 5 q ; 3  .4.p O 8.",
"8.8.^ 3 3 5 5 5 5 5 5 5 O s >.-.e O 8.8.",
"8.] 5 3 5 5 5 5 5 q : % F 7./ : 8.8.8.8.",
" .n % 5 5 5 5 5 3 O p } 7.C O 8.8.8.8.8.",
"] j ; q 5 5 3 O q I 7.) e O 8.8.8.8.8.8.",
"I ( O O O : d Y ,.O.g % : 8.8.8.8.8.8.8.",
"q  .:.( ] &.:.) j % % 8.8.8.8.8.8.8.8.8.",
"8.q S Y H l e O % 8.8.8.8.8.8.8.8.8.8.8.",
"8.8.o O O % : 8.8.8.8.8.8.8.8.8.8.8.8.8."
};
