/* XPM */
static char *haskell_20[] = {
/* columns rows colors chars-per-pixel */
"20 17 3 1 ",
"  c None",
". c gray40",
"X c gray60",
/* pixels */
".... XXXX           ",
" ...  XXX           ",
"  ... XXXX          ",
"  .... XXX          ",
"   ...  XXX  .......",
"   .... XXXX .......",
"    .... XXX  ......",
"     ... XXXX       ",
"    .... XXXXX .....",
"   .... XXXXXX .....",
"   ...  XXXXXXX ....",
"  .... XXX  XXX     ",
"  ... XXXX   XXX    ",
" ...  XXX    XXXX   ",
".... XXXX     XXX   ",
"                    ",
"                    "
};
